<svg xmlns="http://www.w3.org/2000/svg" viewBox="0 0 1998.76 1998.76"><defs><style>.a{fill:#ffffff;}</style></defs><title>Colour-CW-LogomarkArtboard 5</title><path class="a" d="M999.38,0H439.29l-1.07,1.94-77.3,140.83H999.38c473.09,0,856.61,383.52,856.61,856.61S1472.47,1856,999.38,1856,142.77,1472.47,142.77,999.38a855.52,855.52,0,0,1,41.5-263.57H347.84a700.54,700.54,0,0,0-51.32,263.66c0,388.17,314.68,702.86,702.86,702.86s702.86-314.69,702.86-702.86S1387.56,296.61,999.38,296.61l-489.49-.05-220.83,0H276.51L198.14,439.3l153.38,0,223.38,0,424.48,0c309.33,0,560.09,250.76,560.09,560.09s-250.76,560.09-560.09,560.09S439.29,1308.8,439.29,999.47a557.44,557.44,0,0,1,65.9-263.66H690.46A404.43,404.43,0,0,0,593,999.38c0,224.41,181.92,406.34,406.34,406.34s406.34-181.93,406.34-406.34S1223.79,593,999.38,593H113.75L35.39,735.81h0A999.73,999.73,0,0,0,0,999.38c0,551.94,447.44,999.38,999.38,999.38s999.38-447.44,999.38-999.38S1551.32,0,999.38,0Zm0,735.81c145.56,0,263.57,118,263.57,263.57S1144.94,1263,999.38,1263,735.81,1145,735.81,999.38,853.81,735.81,999.38,735.81Z"/></svg>