<svg id="Layer_1" data-name="Layer 1" xmlns="http://www.w3.org/2000/svg" viewBox="0 0 151.03 150.69"><defs><style>.cls-1{fill:#ffffff;}</style></defs><title>piggybankArtboard 2</title><path class="cls-1" d="M150.8,69.52a68.91,68.91,0,0,0-2.15-13A74.69,74.69,0,0,0,116.11,11.9,73.39,73.39,0,0,0,81.33.21,78.42,78.42,0,0,0,65.71.63a76.58,76.58,0,0,0-16,3.89,75.2,75.2,0,0,0-49.54,66C0,73.21,0,75.92,0,78.62v65.64a6.43,6.43,0,0,0,6.43,6.43H31.79a6.48,6.48,0,0,0,6.4-5.76h0a7.55,7.55,0,0,0,.26-1.89v-1.52a2,2,0,0,1,0-.35V141a1.26,1.26,0,0,1,.48.23,75.53,75.53,0,0,0,30.8,9.2,77.31,77.31,0,0,0,13-.13,74.89,74.89,0,0,0,52.14-28.48,74.15,74.15,0,0,0,15.78-39.25A71.12,71.12,0,0,0,150.8,69.52ZM89,111.46a1,1,0,0,1-1,.81H63a1,1,0,0,1-1-.81v-1.09a14.5,14.5,0,0,1,.38-3.41c.16-.38.26-.83.42-1.25s.32-.81.48-1.22a6.89,6.89,0,0,1,.64-1.13l.36-.54a9.48,9.48,0,0,1,.77-1c.29-.36.58-.67.87-1a13.53,13.53,0,0,1,5.34-3.24,8.87,8.87,0,0,1,4.21-16.66,9,9,0,0,1,6.27,2.61,8.86,8.86,0,0,1-2,14A13.47,13.47,0,0,1,89,110.37ZM132.1,57H18.94a1.34,1.34,0,0,1-1.33-1.35,1.2,1.2,0,0,1,.07-.42,61.33,61.33,0,0,1,115.67,0,1.34,1.34,0,0,1-.84,1.7A1.41,1.41,0,0,1,132.1,57Z"/></svg>